<mxfile host="app.diagrams.net" modified="2024-06-20T06:26:05.131Z" agent="Mozilla/5.0 (X11; Linux x86_64; rv:125.0) Gecko/20100101 Firefox/125.0" etag="vGK-4OBB4p1BuXSUpq2z" version="24.5.4" type="github">
  <diagram name="Page-1" id="rB43j8RhS7YDx2vSrmHb">
    <mxGraphModel dx="18270" dy="12970" grid="1" gridSize="10" guides="1" tooltips="1" connect="1" arrows="1" fold="1" page="1" pageScale="1" pageWidth="850" pageHeight="1100" math="0" shadow="0">
      <root>
        <mxCell id="0" />
        <mxCell id="1" parent="0" />
        <mxCell id="luZTjx40LB_68a69q-34-152" value="" style="rounded=1;whiteSpace=wrap;html=1;fontStyle=1" parent="1" vertex="1">
          <mxGeometry x="2810" y="445" width="460" height="265" as="geometry" />
        </mxCell>
        <mxCell id="luZTjx40LB_68a69q-34-110" value="" style="rounded=1;whiteSpace=wrap;html=1;fontStyle=1" parent="1" vertex="1">
          <mxGeometry x="200" y="860" width="520" height="475" as="geometry" />
        </mxCell>
        <mxCell id="luZTjx40LB_68a69q-34-87" value="" style="rounded=1;whiteSpace=wrap;html=1;fontStyle=1" parent="1" vertex="1">
          <mxGeometry x="4480" y="625" width="490" height="340" as="geometry" />
        </mxCell>
        <mxCell id="luZTjx40LB_68a69q-34-1" value="HTTP REQUEST 1" style="whiteSpace=wrap;html=1;aspect=fixed;fontStyle=1" parent="1" vertex="1">
          <mxGeometry x="4610" y="365" width="80" height="80" as="geometry" />
        </mxCell>
        <mxCell id="luZTjx40LB_68a69q-34-2" value="HTTP REQUEST 2" style="whiteSpace=wrap;html=1;aspect=fixed;fontStyle=1" parent="1" vertex="1">
          <mxGeometry x="4610" y="505" width="80" height="80" as="geometry" />
        </mxCell>
        <mxCell id="luZTjx40LB_68a69q-34-3" value="DECODER SIDE" style="text;html=1;align=center;verticalAlign=middle;resizable=0;points=[];autosize=1;strokeColor=none;fillColor=none;fontSize=27;fontStyle=1" parent="1" vertex="1">
          <mxGeometry x="4610" y="220" width="230" height="50" as="geometry" />
        </mxCell>
        <mxCell id="luZTjx40LB_68a69q-34-14" value="" style="whiteSpace=wrap;html=1;aspect=fixed;fontStyle=1" parent="1" vertex="1">
          <mxGeometry x="4350" y="395" width="170" height="170" as="geometry" />
        </mxCell>
        <mxCell id="luZTjx40LB_68a69q-34-15" value="HEADERS FRAME" style="rounded=1;whiteSpace=wrap;html=1;fontStyle=1" parent="1" vertex="1">
          <mxGeometry x="4360" y="405" width="150" height="70" as="geometry" />
        </mxCell>
        <mxCell id="luZTjx40LB_68a69q-34-16" value="DATA FRAME" style="rounded=1;whiteSpace=wrap;html=1;fontStyle=1" parent="1" vertex="1">
          <mxGeometry x="4360" y="485" width="150" height="70" as="geometry" />
        </mxCell>
        <mxCell id="luZTjx40LB_68a69q-34-17" value="FRAMING LAYER " style="text;html=1;align=center;verticalAlign=middle;resizable=0;points=[];autosize=1;strokeColor=none;fillColor=none;fontStyle=1" parent="1" vertex="1">
          <mxGeometry x="4375" y="355" width="120" height="30" as="geometry" />
        </mxCell>
        <mxCell id="luZTjx40LB_68a69q-34-58" value="&lt;font style=&quot;font-size: 40px;&quot;&gt;STATIC TABLE&lt;/font&gt;" style="text;html=1;align=center;verticalAlign=middle;resizable=0;points=[];autosize=1;strokeColor=none;fillColor=none;strokeWidth=1;fontStyle=1" parent="1" vertex="1">
          <mxGeometry x="1950" width="290" height="60" as="geometry" />
        </mxCell>
        <mxCell id="luZTjx40LB_68a69q-34-60" value="&lt;div style=&quot;font-size: 20px;&quot;&gt;&lt;font style=&quot;font-size: 20px;&quot;&gt;.&lt;/font&gt;&lt;/div&gt;&lt;div style=&quot;font-size: 20px;&quot;&gt;&lt;font style=&quot;font-size: 20px;&quot;&gt;.&lt;/font&gt;&lt;/div&gt;&lt;div style=&quot;font-size: 20px;&quot;&gt;&lt;font style=&quot;font-size: 20px;&quot;&gt;&lt;br&gt;&lt;/font&gt;&lt;/div&gt;" style="rounded=0;whiteSpace=wrap;html=1;strokeWidth=1;fontStyle=1" parent="1" vertex="1">
          <mxGeometry x="1890" y="70" width="450" height="180" as="geometry" />
        </mxCell>
        <mxCell id="luZTjx40LB_68a69q-34-61" value="&lt;font style=&quot;font-size: 30px;&quot;&gt;1&lt;span style=&quot;white-space: pre;&quot;&gt;&#x9;&lt;/span&gt;:authority&lt;/font&gt;" style="text;html=1;align=center;verticalAlign=middle;resizable=0;points=[];autosize=1;strokeColor=none;fillColor=none;strokeWidth=1;fontStyle=1" parent="1" vertex="1">
          <mxGeometry x="1900" y="80" width="170" height="50" as="geometry" />
        </mxCell>
        <mxCell id="luZTjx40LB_68a69q-34-62" value="&lt;font style=&quot;font-size: 30px;&quot;&gt;61&lt;span style=&quot;white-space: pre;&quot;&gt;&#x9;&lt;/span&gt;www-authenticate&lt;span style=&quot;white-space: pre;&quot;&gt;&#x9;&lt;/span&gt;&lt;/font&gt;" style="text;html=1;align=center;verticalAlign=middle;resizable=0;points=[];autosize=1;strokeColor=none;fillColor=none;strokeWidth=1;fontStyle=1" parent="1" vertex="1">
          <mxGeometry x="1900" y="180" width="340" height="50" as="geometry" />
        </mxCell>
        <mxCell id="luZTjx40LB_68a69q-34-63" value="&lt;font style=&quot;font-size: 40px;&quot;&gt;DYNAMIC TABLE&lt;/font&gt;" style="text;html=1;align=center;verticalAlign=middle;resizable=0;points=[];autosize=1;strokeColor=none;fillColor=none;strokeWidth=1;fontStyle=1" parent="1" vertex="1">
          <mxGeometry x="1935" y="260" width="340" height="60" as="geometry" />
        </mxCell>
        <mxCell id="luZTjx40LB_68a69q-34-198" style="edgeStyle=orthogonalEdgeStyle;rounded=0;orthogonalLoop=1;jettySize=auto;html=1;exitX=1;exitY=0.5;exitDx=0;exitDy=0;entryX=0.5;entryY=0;entryDx=0;entryDy=0;fontStyle=1" parent="1" source="luZTjx40LB_68a69q-34-67" target="luZTjx40LB_68a69q-34-154" edge="1">
          <mxGeometry relative="1" as="geometry" />
        </mxCell>
        <mxCell id="luZTjx40LB_68a69q-34-67" value="" style="rounded=0;whiteSpace=wrap;html=1;strokeWidth=1;fontStyle=1" parent="1" vertex="1">
          <mxGeometry x="1890" y="330" width="450" height="80" as="geometry" />
        </mxCell>
        <mxCell id="luZTjx40LB_68a69q-34-68" value="&lt;font style=&quot;font-size: 30px;&quot;&gt;62&lt;span style=&quot;white-space: pre;&quot;&gt;&#x9;&lt;/span&gt;location&lt;span style=&quot;white-space: pre;&quot;&gt;&#x9;&lt;/span&gt;https://zoho.com&lt;/font&gt;" style="text;html=1;align=center;verticalAlign=middle;resizable=0;points=[];autosize=1;strokeColor=none;fillColor=none;strokeWidth=1;fontStyle=1" parent="1" vertex="1">
          <mxGeometry x="1890" y="345" width="430" height="50" as="geometry" />
        </mxCell>
        <mxCell id="luZTjx40LB_68a69q-34-71" style="edgeStyle=orthogonalEdgeStyle;rounded=0;orthogonalLoop=1;jettySize=auto;html=1;exitX=0;exitY=0.5;exitDx=0;exitDy=0;entryX=1.006;entryY=0.576;entryDx=0;entryDy=0;entryPerimeter=0;fontStyle=1" parent="1" source="luZTjx40LB_68a69q-34-2" target="luZTjx40LB_68a69q-34-14" edge="1">
          <mxGeometry relative="1" as="geometry" />
        </mxCell>
        <mxCell id="luZTjx40LB_68a69q-34-72" style="edgeStyle=orthogonalEdgeStyle;rounded=0;orthogonalLoop=1;jettySize=auto;html=1;exitX=0;exitY=0.5;exitDx=0;exitDy=0;entryX=1.018;entryY=0.447;entryDx=0;entryDy=0;entryPerimeter=0;fontStyle=1" parent="1" source="luZTjx40LB_68a69q-34-1" target="luZTjx40LB_68a69q-34-14" edge="1">
          <mxGeometry relative="1" as="geometry" />
        </mxCell>
        <mxCell id="luZTjx40LB_68a69q-34-74" value="&lt;div&gt;Second Request Encoded Headers &lt;br&gt;&lt;/div&gt;" style="text;html=1;align=center;verticalAlign=middle;resizable=0;points=[];autosize=1;strokeColor=none;fillColor=none;fontStyle=1" parent="1" vertex="1">
          <mxGeometry x="4550" y="635" width="210" height="30" as="geometry" />
        </mxCell>
        <UserObject label="&lt;span id=&quot;rfc.figure.u.73&quot;&gt;&lt;span&gt;&lt;pre class=&quot;text&quot;&gt;:status: 200&lt;br&gt;cache-control: private&lt;br&gt;date: Mon, 7 June 2024 20:13:21 GMT&lt;br&gt;location: https://zoho.com&lt;/pre&gt;&lt;/span&gt;&lt;/span&gt;" link="&lt;span id=&quot;rfc.figure.u.73&quot;&gt;&lt;span&gt;&lt;pre class=&quot;text&quot;&gt;:status: 302&#xa;cache-control: private&#xa;date: Mon, 21 Oct 2013 20:13:21 GMT&#xa;location: https://www.example.com&lt;/pre&gt;&lt;/span&gt;&lt;/span&gt;" id="luZTjx40LB_68a69q-34-75">
          <mxCell style="text;whiteSpace=wrap;html=1;fontStyle=1" parent="1" vertex="1">
            <mxGeometry x="4560" y="805" width="270" height="80" as="geometry" />
          </mxCell>
        </UserObject>
        <mxCell id="luZTjx40LB_68a69q-34-76" value="Decoded Headers" style="text;html=1;align=center;verticalAlign=middle;resizable=0;points=[];autosize=1;strokeColor=none;fillColor=none;fontStyle=1" parent="1" vertex="1">
          <mxGeometry x="4540" y="795" width="120" height="30" as="geometry" />
        </mxCell>
        <mxCell id="luZTjx40LB_68a69q-34-78" value="77 111 110 44 32 55 32 74 117 110 101 32 50 48 50 52 32 50 48 58 49 51 58 50 49 32 71 77 84 10 62" style="text;whiteSpace=wrap;fontStyle=1" parent="1" vertex="1">
          <mxGeometry x="4560" y="665" width="270" height="50" as="geometry" />
        </mxCell>
        <mxCell id="luZTjx40LB_68a69q-34-80" value="With the dynamic table reference, location name and https://zoho.com decoded" style="text;whiteSpace=wrap;html=1;fontStyle=1" parent="1" vertex="1">
          <mxGeometry x="4520" y="885" width="460" height="40" as="geometry" />
        </mxCell>
        <mxCell id="luZTjx40LB_68a69q-34-88" value="&lt;font style=&quot;font-size: 25px;&quot;&gt;REQUEST 2&lt;/font&gt;" style="text;whiteSpace=wrap;html=1;fontStyle=1" parent="1" vertex="1">
          <mxGeometry x="4520" y="915" width="270" height="50" as="geometry" />
        </mxCell>
        <mxCell id="luZTjx40LB_68a69q-34-89" value="&lt;font style=&quot;font-size: 16px;&quot;&gt;while reading REQUEST1 HEADERS frame, adds Dynamic Table entry&lt;/font&gt;" style="text;whiteSpace=wrap;html=1;rotation=400;fontStyle=1" parent="1" vertex="1">
          <mxGeometry x="4680" y="405" width="310" height="40" as="geometry" />
        </mxCell>
        <mxCell id="luZTjx40LB_68a69q-34-92" value="Points to this entry 62 " style="text;html=1;align=center;verticalAlign=middle;resizable=0;points=[];autosize=1;strokeColor=none;fillColor=none;fontStyle=1" parent="1" vertex="1">
          <mxGeometry x="5130" y="725" width="140" height="30" as="geometry" />
        </mxCell>
        <mxCell id="luZTjx40LB_68a69q-34-94" value="After dereferencing&lt;br&gt;" style="text;whiteSpace=wrap;html=1;rotation=270;fontStyle=1" parent="1" vertex="1">
          <mxGeometry x="4290" y="705" width="140" height="40" as="geometry" />
        </mxCell>
        <mxCell id="luZTjx40LB_68a69q-34-96" value="" style="rounded=1;whiteSpace=wrap;html=1;fontStyle=1" parent="1" vertex="1">
          <mxGeometry x="290" y="435" width="460" height="265" as="geometry" />
        </mxCell>
        <mxCell id="luZTjx40LB_68a69q-34-98" value="&lt;font style=&quot;font-size: 20px;&quot;&gt;HTTP REQUEST 1 &lt;br&gt;&lt;/font&gt;&lt;div style=&quot;font-size: 20px;&quot;&gt;&lt;font style=&quot;font-size: 20px;&quot;&gt;&lt;br&gt;&lt;/font&gt;&lt;/div&gt;&lt;div style=&quot;font-size: 20px;&quot;&gt;&lt;font style=&quot;font-size: 20px;&quot;&gt;&lt;br&gt;&lt;/font&gt;&lt;/div&gt;&lt;div style=&quot;font-size: 20px;&quot;&gt;&lt;font style=&quot;font-size: 20px;&quot;&gt;&lt;br&gt;&lt;/font&gt;&lt;/div&gt;" style="text;whiteSpace=wrap;html=1;fontStyle=1" parent="1" vertex="1">
          <mxGeometry x="310" y="445" width="180" height="40" as="geometry" />
        </mxCell>
        <mxCell id="luZTjx40LB_68a69q-34-99" value="&lt;font style=&quot;font-size: 30px;&quot;&gt;HEADERS FRAME&lt;br&gt;&lt;/font&gt;" style="rounded=0;whiteSpace=wrap;html=1;fontStyle=1" parent="1" vertex="1">
          <mxGeometry x="310" y="485" width="420" height="75" as="geometry" />
        </mxCell>
        <mxCell id="luZTjx40LB_68a69q-34-100" value="&lt;font style=&quot;font-size: 30px;&quot;&gt;DATA FRAME&lt;br&gt;&lt;/font&gt;" style="rounded=0;whiteSpace=wrap;html=1;fontStyle=1" parent="1" vertex="1">
          <mxGeometry x="310" y="580" width="420" height="75" as="geometry" />
        </mxCell>
        <mxCell id="luZTjx40LB_68a69q-34-101" value="" style="rounded=1;whiteSpace=wrap;html=1;fontStyle=1" parent="1" vertex="1">
          <mxGeometry x="780" y="435" width="460" height="265" as="geometry" />
        </mxCell>
        <mxCell id="luZTjx40LB_68a69q-34-102" value="&lt;font style=&quot;font-size: 20px;&quot;&gt;HTTP REQUEST 2&lt;br&gt;&lt;/font&gt;&lt;div style=&quot;font-size: 20px;&quot;&gt;&lt;font style=&quot;font-size: 20px;&quot;&gt;&lt;br&gt;&lt;/font&gt;&lt;/div&gt;&lt;div style=&quot;font-size: 20px;&quot;&gt;&lt;font style=&quot;font-size: 20px;&quot;&gt;&lt;br&gt;&lt;/font&gt;&lt;/div&gt;&lt;div style=&quot;font-size: 20px;&quot;&gt;&lt;font style=&quot;font-size: 20px;&quot;&gt;&lt;br&gt;&lt;/font&gt;&lt;/div&gt;" style="text;whiteSpace=wrap;html=1;fontStyle=1" parent="1" vertex="1">
          <mxGeometry x="800" y="445" width="200" height="40" as="geometry" />
        </mxCell>
        <mxCell id="luZTjx40LB_68a69q-34-103" value="&lt;font style=&quot;font-size: 30px;&quot;&gt;HEADERS FRAME&lt;br&gt;&lt;/font&gt;" style="rounded=0;whiteSpace=wrap;html=1;fontStyle=1" parent="1" vertex="1">
          <mxGeometry x="800" y="485" width="420" height="75" as="geometry" />
        </mxCell>
        <mxCell id="luZTjx40LB_68a69q-34-104" value="&lt;font style=&quot;font-size: 30px;&quot;&gt;DATA FRAME&lt;br&gt;&lt;/font&gt;" style="rounded=0;whiteSpace=wrap;html=1;fontStyle=1" parent="1" vertex="1">
          <mxGeometry x="800" y="580" width="420" height="75" as="geometry" />
        </mxCell>
        <mxCell id="luZTjx40LB_68a69q-34-106" value="" style="rounded=1;whiteSpace=wrap;html=1;fontStyle=1" parent="1" vertex="1">
          <mxGeometry x="225" y="1045" width="460" height="265" as="geometry" />
        </mxCell>
        <mxCell id="luZTjx40LB_68a69q-34-107" value="&lt;div style=&quot;font-size: 20px;&quot;&gt;&lt;font style=&quot;font-size: 20px;&quot;&gt;REQUEST 1 &lt;br&gt;&lt;/font&gt;&lt;/div&gt;&lt;div style=&quot;font-size: 20px;&quot;&gt;&lt;font style=&quot;font-size: 20px;&quot;&gt;&lt;br&gt;&lt;/font&gt;&lt;/div&gt;&lt;div style=&quot;font-size: 20px;&quot;&gt;&lt;font style=&quot;font-size: 20px;&quot;&gt;&lt;br&gt;&lt;/font&gt;&lt;/div&gt;&lt;div style=&quot;font-size: 20px;&quot;&gt;&lt;font style=&quot;font-size: 20px;&quot;&gt;&lt;br&gt;&lt;/font&gt;&lt;/div&gt;" style="text;whiteSpace=wrap;html=1;fontStyle=1" parent="1" vertex="1">
          <mxGeometry x="245" y="1055" width="150" height="40" as="geometry" />
        </mxCell>
        <mxCell id="luZTjx40LB_68a69q-34-108" value="&lt;font style=&quot;font-size: 30px;&quot;&gt;HEADERS FRAME&lt;br&gt;&lt;/font&gt;" style="rounded=0;whiteSpace=wrap;html=1;fontStyle=1" parent="1" vertex="1">
          <mxGeometry x="245" y="1095" width="420" height="75" as="geometry" />
        </mxCell>
        <mxCell id="luZTjx40LB_68a69q-34-109" value="&lt;font style=&quot;font-size: 30px;&quot;&gt;DATA FRAME&lt;br&gt;&lt;/font&gt;" style="rounded=0;whiteSpace=wrap;html=1;fontStyle=1" parent="1" vertex="1">
          <mxGeometry x="245" y="1190" width="420" height="75" as="geometry" />
        </mxCell>
        <mxCell id="luZTjx40LB_68a69q-34-111" value="TCP Header" style="text;html=1;align=center;verticalAlign=middle;resizable=0;points=[];autosize=1;strokeColor=none;fillColor=none;fontStyle=1" parent="1" vertex="1">
          <mxGeometry x="1065" y="1023" width="90" height="30" as="geometry" />
        </mxCell>
        <mxCell id="luZTjx40LB_68a69q-34-112" value="&lt;font style=&quot;font-size: 25px;&quot;&gt;TCP Headers&lt;br&gt;&lt;/font&gt;" style="text;whiteSpace=wrap;html=1;fontStyle=1" parent="1" vertex="1">
          <mxGeometry x="230" y="905" width="160" height="40" as="geometry" />
        </mxCell>
        <mxCell id="luZTjx40LB_68a69q-34-113" value="&lt;font style=&quot;font-size: 25px;&quot;&gt;TCP Payload&lt;br&gt;&lt;/font&gt;" style="text;whiteSpace=wrap;html=1;fontStyle=1" parent="1" vertex="1">
          <mxGeometry x="230" y="985" width="160" height="40" as="geometry" />
        </mxCell>
        <mxCell id="luZTjx40LB_68a69q-34-114" value="" style="line;strokeWidth=4;html=1;perimeter=backbonePerimeter;points=[];outlineConnect=0;fontStyle=1" parent="1" vertex="1">
          <mxGeometry x="200" y="970" width="520" height="10" as="geometry" />
        </mxCell>
        <mxCell id="luZTjx40LB_68a69q-34-115" value="" style="rounded=1;whiteSpace=wrap;html=1;fontStyle=1" parent="1" vertex="1">
          <mxGeometry x="770" y="860" width="510" height="475" as="geometry" />
        </mxCell>
        <mxCell id="luZTjx40LB_68a69q-34-116" value="" style="rounded=1;whiteSpace=wrap;html=1;fontStyle=1" parent="1" vertex="1">
          <mxGeometry x="795" y="1045" width="460" height="265" as="geometry" />
        </mxCell>
        <mxCell id="luZTjx40LB_68a69q-34-117" value="&lt;div style=&quot;font-size: 20px;&quot;&gt;&lt;font style=&quot;font-size: 20px;&quot;&gt;REQUEST 2&lt;br&gt;&lt;/font&gt;&lt;/div&gt;&lt;div style=&quot;font-size: 20px;&quot;&gt;&lt;font style=&quot;font-size: 20px;&quot;&gt;&lt;br&gt;&lt;/font&gt;&lt;/div&gt;&lt;div style=&quot;font-size: 20px;&quot;&gt;&lt;font style=&quot;font-size: 20px;&quot;&gt;&lt;br&gt;&lt;/font&gt;&lt;/div&gt;&lt;div style=&quot;font-size: 20px;&quot;&gt;&lt;font style=&quot;font-size: 20px;&quot;&gt;&lt;br&gt;&lt;/font&gt;&lt;/div&gt;" style="text;whiteSpace=wrap;html=1;fontStyle=1" parent="1" vertex="1">
          <mxGeometry x="815" y="1055" width="150" height="40" as="geometry" />
        </mxCell>
        <mxCell id="luZTjx40LB_68a69q-34-118" value="&lt;font style=&quot;font-size: 30px;&quot;&gt;HEADERS FRAME&lt;br&gt;&lt;/font&gt;" style="rounded=0;whiteSpace=wrap;html=1;fontStyle=1" parent="1" vertex="1">
          <mxGeometry x="815" y="1095" width="420" height="75" as="geometry" />
        </mxCell>
        <mxCell id="luZTjx40LB_68a69q-34-119" value="&lt;font style=&quot;font-size: 30px;&quot;&gt;DATA FRAME&lt;br&gt;&lt;/font&gt;" style="rounded=0;whiteSpace=wrap;html=1;fontStyle=1" parent="1" vertex="1">
          <mxGeometry x="815" y="1190" width="420" height="75" as="geometry" />
        </mxCell>
        <mxCell id="luZTjx40LB_68a69q-34-120" value="&lt;font style=&quot;font-size: 25px;&quot;&gt;TCP Headers&lt;br&gt;&lt;/font&gt;" style="text;whiteSpace=wrap;html=1;fontStyle=1" parent="1" vertex="1">
          <mxGeometry x="800" y="905" width="160" height="40" as="geometry" />
        </mxCell>
        <mxCell id="luZTjx40LB_68a69q-34-121" value="&lt;font style=&quot;font-size: 25px;&quot;&gt;TCP Payload&lt;br&gt;&lt;/font&gt;" style="text;whiteSpace=wrap;html=1;fontStyle=1" parent="1" vertex="1">
          <mxGeometry x="800" y="985" width="160" height="40" as="geometry" />
        </mxCell>
        <mxCell id="luZTjx40LB_68a69q-34-122" value="" style="line;strokeWidth=4;html=1;perimeter=backbonePerimeter;points=[];outlineConnect=0;fontStyle=1" parent="1" vertex="1">
          <mxGeometry x="770" y="970" width="520" height="10" as="geometry" />
        </mxCell>
        <mxCell id="luZTjx40LB_68a69q-34-124" value="&lt;font style=&quot;font-size: 35px;&quot;&gt;TCP SEGMENT 1&lt;/font&gt;" style="text;whiteSpace=wrap;html=1;fontStyle=1" parent="1" vertex="1">
          <mxGeometry x="200" y="795" width="300" height="40" as="geometry" />
        </mxCell>
        <mxCell id="luZTjx40LB_68a69q-34-125" value="&lt;font style=&quot;font-size: 35px;&quot;&gt;TCP SEGMENT 2&lt;br&gt;&lt;/font&gt;" style="text;whiteSpace=wrap;html=1;fontStyle=1" parent="1" vertex="1">
          <mxGeometry x="770" y="795" width="300" height="40" as="geometry" />
        </mxCell>
        <mxCell id="luZTjx40LB_68a69q-34-128" value="&lt;font style=&quot;font-size: 60px;&quot;&gt;ON&amp;nbsp; NETWORK&lt;br&gt;&lt;/font&gt;" style="text;whiteSpace=wrap;html=1;fontStyle=1" parent="1" vertex="1">
          <mxGeometry x="1690" y="1930" width="555" height="40" as="geometry" />
        </mxCell>
        <mxCell id="luZTjx40LB_68a69q-34-146" style="edgeStyle=orthogonalEdgeStyle;rounded=0;orthogonalLoop=1;jettySize=auto;html=1;exitX=0.5;exitY=1;exitDx=0;exitDy=0;entryX=0.5;entryY=1;entryDx=0;entryDy=0;fontStyle=1" parent="1" source="luZTjx40LB_68a69q-34-126" target="luZTjx40LB_68a69q-34-141" edge="1">
          <mxGeometry relative="1" as="geometry">
            <Array as="points">
              <mxPoint x="765" y="2060" />
              <mxPoint x="2985" y="2060" />
            </Array>
          </mxGeometry>
        </mxCell>
        <mxCell id="luZTjx40LB_68a69q-34-126" value="" style="rounded=1;whiteSpace=wrap;html=1;fontStyle=1" parent="1" vertex="1">
          <mxGeometry x="480" y="1715" width="570" height="160" as="geometry" />
        </mxCell>
        <mxCell id="luZTjx40LB_68a69q-34-131" value="" style="shape=cube;whiteSpace=wrap;html=1;boundedLbl=1;backgroundOutline=1;darkOpacity=0.05;darkOpacity2=0.1;fontStyle=1" parent="1" vertex="1">
          <mxGeometry x="520" y="1740" width="220" height="110" as="geometry" />
        </mxCell>
        <mxCell id="luZTjx40LB_68a69q-34-132" value="TCP" style="text;html=1;align=center;verticalAlign=middle;resizable=0;points=[];autosize=1;strokeColor=none;fillColor=none;fontStyle=1" parent="1" vertex="1">
          <mxGeometry x="215" y="2028" width="50" height="30" as="geometry" />
        </mxCell>
        <mxCell id="luZTjx40LB_68a69q-34-133" value="&lt;span&gt;&lt;font style=&quot;font-size: 30px;&quot;&gt;TCP SEGMENT 1&lt;/font&gt;&lt;/span&gt;" style="text;whiteSpace=wrap;html=1;fontStyle=1" parent="1" vertex="1">
          <mxGeometry x="550" y="1760" width="200" height="40" as="geometry" />
        </mxCell>
        <mxCell id="luZTjx40LB_68a69q-34-134" value="" style="shape=cube;whiteSpace=wrap;html=1;boundedLbl=1;backgroundOutline=1;darkOpacity=0.05;darkOpacity2=0.1;fontStyle=1" parent="1" vertex="1">
          <mxGeometry x="765" y="1740" width="220" height="110" as="geometry" />
        </mxCell>
        <mxCell id="luZTjx40LB_68a69q-34-135" value="&lt;span&gt;&lt;font style=&quot;font-size: 30px;&quot;&gt;TCP SEGMENT 2&lt;br&gt;&lt;/font&gt;&lt;/span&gt;" style="text;whiteSpace=wrap;html=1;fontStyle=1" parent="1" vertex="1">
          <mxGeometry x="795" y="1760" width="200" height="40" as="geometry" />
        </mxCell>
        <mxCell id="luZTjx40LB_68a69q-34-137" style="edgeStyle=orthogonalEdgeStyle;rounded=0;orthogonalLoop=1;jettySize=auto;html=1;exitX=0;exitY=0.5;exitDx=0;exitDy=0;entryX=0;entryY=0;entryDx=0;entryDy=45;entryPerimeter=0;fontStyle=1" parent="1" source="luZTjx40LB_68a69q-34-124" target="luZTjx40LB_68a69q-34-131" edge="1">
          <mxGeometry relative="1" as="geometry">
            <Array as="points">
              <mxPoint x="120" y="815" />
              <mxPoint x="120" y="1785" />
            </Array>
          </mxGeometry>
        </mxCell>
        <mxCell id="luZTjx40LB_68a69q-34-140" style="edgeStyle=orthogonalEdgeStyle;rounded=0;orthogonalLoop=1;jettySize=auto;html=1;exitX=1;exitY=0.75;exitDx=0;exitDy=0;entryX=0.415;entryY=-0.1;entryDx=0;entryDy=0;entryPerimeter=0;fontStyle=1" parent="1" source="luZTjx40LB_68a69q-34-125" target="luZTjx40LB_68a69q-34-135" edge="1">
          <mxGeometry relative="1" as="geometry">
            <Array as="points">
              <mxPoint x="1440" y="825" />
              <mxPoint x="1440" y="1400" />
              <mxPoint x="878" y="1400" />
            </Array>
          </mxGeometry>
        </mxCell>
        <mxCell id="luZTjx40LB_68a69q-34-141" value="" style="rounded=1;whiteSpace=wrap;html=1;fontStyle=1" parent="1" vertex="1">
          <mxGeometry x="2700" y="1700" width="570" height="160" as="geometry" />
        </mxCell>
        <mxCell id="luZTjx40LB_68a69q-34-174" style="edgeStyle=orthogonalEdgeStyle;rounded=0;orthogonalLoop=1;jettySize=auto;html=1;exitX=0;exitY=0;exitDx=100;exitDy=0;exitPerimeter=0;entryX=0;entryY=0.5;entryDx=0;entryDy=0;fontStyle=1" parent="1" source="luZTjx40LB_68a69q-34-142" target="luZTjx40LB_68a69q-34-147" edge="1">
          <mxGeometry relative="1" as="geometry">
            <Array as="points">
              <mxPoint x="2840" y="1535" />
              <mxPoint x="2140" y="1535" />
              <mxPoint x="2140" y="1107" />
            </Array>
          </mxGeometry>
        </mxCell>
        <mxCell id="luZTjx40LB_68a69q-34-142" value="" style="shape=cube;whiteSpace=wrap;html=1;boundedLbl=1;backgroundOutline=1;darkOpacity=0.05;darkOpacity2=0.1;fontStyle=1" parent="1" vertex="1">
          <mxGeometry x="2740" y="1725" width="220" height="110" as="geometry" />
        </mxCell>
        <mxCell id="luZTjx40LB_68a69q-34-143" value="&lt;span&gt;&lt;font style=&quot;font-size: 30px;&quot;&gt;TCP SEGMENT 1&lt;/font&gt;&lt;/span&gt;" style="text;whiteSpace=wrap;html=1;fontStyle=1" parent="1" vertex="1">
          <mxGeometry x="2770" y="1745" width="200" height="40" as="geometry" />
        </mxCell>
        <mxCell id="luZTjx40LB_68a69q-34-144" value="" style="shape=cube;whiteSpace=wrap;html=1;boundedLbl=1;backgroundOutline=1;darkOpacity=0.05;darkOpacity2=0.1;fontStyle=1" parent="1" vertex="1">
          <mxGeometry x="2985" y="1725" width="220" height="110" as="geometry" />
        </mxCell>
        <mxCell id="luZTjx40LB_68a69q-34-175" style="edgeStyle=orthogonalEdgeStyle;rounded=0;orthogonalLoop=1;jettySize=auto;html=1;exitX=0.5;exitY=0;exitDx=0;exitDy=0;entryX=1;entryY=0.5;entryDx=0;entryDy=0;fontStyle=1" parent="1" source="luZTjx40LB_68a69q-34-145" target="luZTjx40LB_68a69q-34-164" edge="1">
          <mxGeometry relative="1" as="geometry">
            <Array as="points">
              <mxPoint x="3115" y="1545" />
              <mxPoint x="3450" y="1545" />
              <mxPoint x="3450" y="1107" />
            </Array>
          </mxGeometry>
        </mxCell>
        <mxCell id="luZTjx40LB_68a69q-34-145" value="&lt;span&gt;&lt;font style=&quot;font-size: 30px;&quot;&gt;TCP SEGMENT 2&lt;br&gt;&lt;/font&gt;&lt;/span&gt;" style="text;whiteSpace=wrap;html=1;fontStyle=1" parent="1" vertex="1">
          <mxGeometry x="3015" y="1745" width="200" height="40" as="geometry" />
        </mxCell>
        <mxCell id="luZTjx40LB_68a69q-34-147" value="" style="rounded=1;whiteSpace=wrap;html=1;fontStyle=1" parent="1" vertex="1">
          <mxGeometry x="2230" y="870" width="520" height="475" as="geometry" />
        </mxCell>
        <mxCell id="luZTjx40LB_68a69q-34-148" value="" style="rounded=1;whiteSpace=wrap;html=1;fontStyle=1" parent="1" vertex="1">
          <mxGeometry x="2320" y="445" width="460" height="265" as="geometry" />
        </mxCell>
        <mxCell id="luZTjx40LB_68a69q-34-149" value="&lt;font style=&quot;font-size: 20px;&quot;&gt;HTTP REQUEST 1 &lt;br&gt;&lt;/font&gt;&lt;div style=&quot;font-size: 20px;&quot;&gt;&lt;font style=&quot;font-size: 20px;&quot;&gt;&lt;br&gt;&lt;/font&gt;&lt;/div&gt;&lt;div style=&quot;font-size: 20px;&quot;&gt;&lt;font style=&quot;font-size: 20px;&quot;&gt;&lt;br&gt;&lt;/font&gt;&lt;/div&gt;&lt;div style=&quot;font-size: 20px;&quot;&gt;&lt;font style=&quot;font-size: 20px;&quot;&gt;&lt;br&gt;&lt;/font&gt;&lt;/div&gt;" style="text;whiteSpace=wrap;html=1;fontStyle=1" parent="1" vertex="1">
          <mxGeometry x="2340" y="455" width="180" height="40" as="geometry" />
        </mxCell>
        <mxCell id="luZTjx40LB_68a69q-34-150" value="&lt;font style=&quot;font-size: 30px;&quot;&gt;HEADERS FRAME&lt;br&gt;&lt;/font&gt;" style="rounded=0;whiteSpace=wrap;html=1;fontStyle=1" parent="1" vertex="1">
          <mxGeometry x="2340" y="495" width="420" height="75" as="geometry" />
        </mxCell>
        <mxCell id="luZTjx40LB_68a69q-34-151" value="&lt;font style=&quot;font-size: 30px;&quot;&gt;DATA FRAME&lt;br&gt;&lt;/font&gt;" style="rounded=0;whiteSpace=wrap;html=1;fontStyle=1" parent="1" vertex="1">
          <mxGeometry x="2340" y="590" width="420" height="75" as="geometry" />
        </mxCell>
        <mxCell id="luZTjx40LB_68a69q-34-153" value="&lt;font style=&quot;font-size: 20px;&quot;&gt;HTTP REQUEST 2&lt;br&gt;&lt;/font&gt;&lt;div style=&quot;font-size: 20px;&quot;&gt;&lt;font style=&quot;font-size: 20px;&quot;&gt;&lt;br&gt;&lt;/font&gt;&lt;/div&gt;&lt;div style=&quot;font-size: 20px;&quot;&gt;&lt;font style=&quot;font-size: 20px;&quot;&gt;&lt;br&gt;&lt;/font&gt;&lt;/div&gt;&lt;div style=&quot;font-size: 20px;&quot;&gt;&lt;font style=&quot;font-size: 20px;&quot;&gt;&lt;br&gt;&lt;/font&gt;&lt;/div&gt;" style="text;whiteSpace=wrap;html=1;fontStyle=1" parent="1" vertex="1">
          <mxGeometry x="2830" y="455" width="200" height="40" as="geometry" />
        </mxCell>
        <mxCell id="luZTjx40LB_68a69q-34-154" value="&lt;font style=&quot;font-size: 30px;&quot;&gt;HEADERS FRAME&lt;br&gt;&lt;/font&gt;" style="rounded=0;whiteSpace=wrap;html=1;fontStyle=1" parent="1" vertex="1">
          <mxGeometry x="2830" y="495" width="420" height="75" as="geometry" />
        </mxCell>
        <mxCell id="luZTjx40LB_68a69q-34-155" value="&lt;font style=&quot;font-size: 30px;&quot;&gt;DATA FRAME&lt;br&gt;&lt;/font&gt;" style="rounded=0;whiteSpace=wrap;html=1;fontStyle=1" parent="1" vertex="1">
          <mxGeometry x="2830" y="590" width="420" height="75" as="geometry" />
        </mxCell>
        <mxCell id="luZTjx40LB_68a69q-34-156" value="" style="rounded=1;whiteSpace=wrap;html=1;fontStyle=1" parent="1" vertex="1">
          <mxGeometry x="2255" y="1055" width="460" height="265" as="geometry" />
        </mxCell>
        <mxCell id="luZTjx40LB_68a69q-34-157" value="&lt;div style=&quot;font-size: 20px;&quot;&gt;&lt;font style=&quot;font-size: 20px;&quot;&gt;REQUEST 1 &lt;br&gt;&lt;/font&gt;&lt;/div&gt;&lt;div style=&quot;font-size: 20px;&quot;&gt;&lt;font style=&quot;font-size: 20px;&quot;&gt;&lt;br&gt;&lt;/font&gt;&lt;/div&gt;&lt;div style=&quot;font-size: 20px;&quot;&gt;&lt;font style=&quot;font-size: 20px;&quot;&gt;&lt;br&gt;&lt;/font&gt;&lt;/div&gt;&lt;div style=&quot;font-size: 20px;&quot;&gt;&lt;font style=&quot;font-size: 20px;&quot;&gt;&lt;br&gt;&lt;/font&gt;&lt;/div&gt;" style="text;whiteSpace=wrap;html=1;fontStyle=1" parent="1" vertex="1">
          <mxGeometry x="2275" y="1065" width="150" height="40" as="geometry" />
        </mxCell>
        <mxCell id="luZTjx40LB_68a69q-34-158" value="&lt;font style=&quot;font-size: 30px;&quot;&gt;HEADERS FRAME&lt;br&gt;&lt;/font&gt;" style="rounded=0;whiteSpace=wrap;html=1;fontStyle=1" parent="1" vertex="1">
          <mxGeometry x="2275" y="1105" width="420" height="75" as="geometry" />
        </mxCell>
        <mxCell id="luZTjx40LB_68a69q-34-159" value="&lt;font style=&quot;font-size: 30px;&quot;&gt;DATA FRAME&lt;br&gt;&lt;/font&gt;" style="rounded=0;whiteSpace=wrap;html=1;fontStyle=1" parent="1" vertex="1">
          <mxGeometry x="2275" y="1200" width="420" height="75" as="geometry" />
        </mxCell>
        <mxCell id="luZTjx40LB_68a69q-34-160" value="TCP Header" style="text;html=1;align=center;verticalAlign=middle;resizable=0;points=[];autosize=1;strokeColor=none;fillColor=none;fontStyle=1" parent="1" vertex="1">
          <mxGeometry x="3095" y="1033" width="90" height="30" as="geometry" />
        </mxCell>
        <mxCell id="luZTjx40LB_68a69q-34-161" value="&lt;font style=&quot;font-size: 25px;&quot;&gt;TCP Headers&lt;br&gt;&lt;/font&gt;" style="text;whiteSpace=wrap;html=1;fontStyle=1" parent="1" vertex="1">
          <mxGeometry x="2260" y="915" width="160" height="40" as="geometry" />
        </mxCell>
        <mxCell id="luZTjx40LB_68a69q-34-162" value="&lt;font style=&quot;font-size: 25px;&quot;&gt;TCP Payload&lt;br&gt;&lt;/font&gt;" style="text;whiteSpace=wrap;html=1;fontStyle=1" parent="1" vertex="1">
          <mxGeometry x="2260" y="995" width="160" height="40" as="geometry" />
        </mxCell>
        <mxCell id="luZTjx40LB_68a69q-34-163" value="" style="line;strokeWidth=4;html=1;perimeter=backbonePerimeter;points=[];outlineConnect=0;fontStyle=1" parent="1" vertex="1">
          <mxGeometry x="2230" y="980" width="520" height="10" as="geometry" />
        </mxCell>
        <mxCell id="luZTjx40LB_68a69q-34-164" value="" style="rounded=1;whiteSpace=wrap;html=1;fontStyle=1" parent="1" vertex="1">
          <mxGeometry x="2800" y="870" width="510" height="475" as="geometry" />
        </mxCell>
        <mxCell id="luZTjx40LB_68a69q-34-165" value="" style="rounded=1;whiteSpace=wrap;html=1;fontStyle=1" parent="1" vertex="1">
          <mxGeometry x="2825" y="1055" width="460" height="265" as="geometry" />
        </mxCell>
        <mxCell id="luZTjx40LB_68a69q-34-166" value="&lt;div style=&quot;font-size: 20px;&quot;&gt;&lt;font style=&quot;font-size: 20px;&quot;&gt;REQUEST 2&lt;br&gt;&lt;/font&gt;&lt;/div&gt;&lt;div style=&quot;font-size: 20px;&quot;&gt;&lt;font style=&quot;font-size: 20px;&quot;&gt;&lt;br&gt;&lt;/font&gt;&lt;/div&gt;&lt;div style=&quot;font-size: 20px;&quot;&gt;&lt;font style=&quot;font-size: 20px;&quot;&gt;&lt;br&gt;&lt;/font&gt;&lt;/div&gt;&lt;div style=&quot;font-size: 20px;&quot;&gt;&lt;font style=&quot;font-size: 20px;&quot;&gt;&lt;br&gt;&lt;/font&gt;&lt;/div&gt;" style="text;whiteSpace=wrap;html=1;fontStyle=1" parent="1" vertex="1">
          <mxGeometry x="2845" y="1065" width="150" height="40" as="geometry" />
        </mxCell>
        <mxCell id="luZTjx40LB_68a69q-34-167" value="&lt;font style=&quot;font-size: 30px;&quot;&gt;HEADERS FRAME&lt;br&gt;&lt;/font&gt;" style="rounded=0;whiteSpace=wrap;html=1;fontStyle=1" parent="1" vertex="1">
          <mxGeometry x="2845" y="1105" width="420" height="75" as="geometry" />
        </mxCell>
        <mxCell id="luZTjx40LB_68a69q-34-168" value="&lt;font style=&quot;font-size: 30px;&quot;&gt;DATA FRAME&lt;br&gt;&lt;/font&gt;" style="rounded=0;whiteSpace=wrap;html=1;fontStyle=1" parent="1" vertex="1">
          <mxGeometry x="2845" y="1200" width="420" height="75" as="geometry" />
        </mxCell>
        <mxCell id="luZTjx40LB_68a69q-34-169" value="&lt;font style=&quot;font-size: 25px;&quot;&gt;TCP Headers&lt;br&gt;&lt;/font&gt;" style="text;whiteSpace=wrap;html=1;fontStyle=1" parent="1" vertex="1">
          <mxGeometry x="2830" y="915" width="160" height="40" as="geometry" />
        </mxCell>
        <mxCell id="luZTjx40LB_68a69q-34-170" value="&lt;font style=&quot;font-size: 25px;&quot;&gt;TCP Payload&lt;br&gt;&lt;/font&gt;" style="text;whiteSpace=wrap;html=1;fontStyle=1" parent="1" vertex="1">
          <mxGeometry x="2830" y="995" width="160" height="40" as="geometry" />
        </mxCell>
        <mxCell id="luZTjx40LB_68a69q-34-171" value="" style="line;strokeWidth=4;html=1;perimeter=backbonePerimeter;points=[];outlineConnect=0;fontStyle=1" parent="1" vertex="1">
          <mxGeometry x="2800" y="980" width="520" height="10" as="geometry" />
        </mxCell>
        <mxCell id="luZTjx40LB_68a69q-34-172" value="&lt;font style=&quot;font-size: 35px;&quot;&gt;TCP SEGMENT 1&lt;/font&gt;" style="text;whiteSpace=wrap;html=1;fontStyle=1" parent="1" vertex="1">
          <mxGeometry x="2230" y="805" width="300" height="40" as="geometry" />
        </mxCell>
        <mxCell id="luZTjx40LB_68a69q-34-173" value="&lt;font style=&quot;font-size: 35px;&quot;&gt;TCP SEGMENT 2&lt;br&gt;&lt;/font&gt;" style="text;whiteSpace=wrap;html=1;fontStyle=1" parent="1" vertex="1">
          <mxGeometry x="2800" y="805" width="300" height="40" as="geometry" />
        </mxCell>
        <mxCell id="luZTjx40LB_68a69q-34-177" value="&lt;font style=&quot;font-size: 40px;&quot;&gt;RECEIVED ON THE SAME ORDER &lt;br&gt;&lt;/font&gt;" style="text;whiteSpace=wrap;html=1;fontStyle=1" parent="1" vertex="1">
          <mxGeometry x="2660" y="1895" width="670" height="75" as="geometry" />
        </mxCell>
        <mxCell id="luZTjx40LB_68a69q-34-178" value="&lt;div align=&quot;center&quot; style=&quot;font-size: 100px;&quot;&gt;&lt;font style=&quot;font-size: 100px;&quot;&gt;HTTP/2 HPACK OVERVIEW&lt;br&gt;&lt;/font&gt;&lt;/div&gt;" style="text;whiteSpace=wrap;html=1;align=center;fontStyle=1" parent="1" vertex="1">
          <mxGeometry x="1125" y="-250" width="1300" height="75" as="geometry" />
        </mxCell>
        <mxCell id="luZTjx40LB_68a69q-34-180" style="edgeStyle=orthogonalEdgeStyle;rounded=0;orthogonalLoop=1;jettySize=auto;html=1;exitX=0;exitY=0.5;exitDx=0;exitDy=0;entryX=-0.007;entryY=0.44;entryDx=0;entryDy=0;entryPerimeter=0;fontStyle=1" parent="1" source="luZTjx40LB_68a69q-34-150" target="luZTjx40LB_68a69q-34-68" edge="1">
          <mxGeometry relative="1" as="geometry">
            <Array as="points">
              <mxPoint x="1820" y="533" />
              <mxPoint x="1820" y="367" />
            </Array>
          </mxGeometry>
        </mxCell>
        <mxCell id="luZTjx40LB_68a69q-34-181" value="&lt;font style=&quot;font-size: 25px;&quot;&gt;HTTP REQUEST 1 ADDED THIS ENTRY &lt;br&gt;&lt;/font&gt;" style="text;html=1;align=center;verticalAlign=middle;resizable=0;points=[];autosize=1;strokeColor=none;fillColor=none;fontStyle=1" parent="1" vertex="1">
          <mxGeometry x="1820" y="555" width="490" height="40" as="geometry" />
        </mxCell>
        <mxCell id="luZTjx40LB_68a69q-34-182" value="&lt;font style=&quot;font-size: 40px;&quot;&gt;STATIC TABLE&lt;/font&gt;" style="text;html=1;align=center;verticalAlign=middle;resizable=0;points=[];autosize=1;strokeColor=none;fillColor=none;strokeWidth=1;fontStyle=1" parent="1" vertex="1">
          <mxGeometry x="1215" width="290" height="60" as="geometry" />
        </mxCell>
        <mxCell id="luZTjx40LB_68a69q-34-183" value="&lt;div style=&quot;font-size: 20px;&quot;&gt;&lt;font style=&quot;font-size: 20px;&quot;&gt;.&lt;/font&gt;&lt;/div&gt;&lt;div style=&quot;font-size: 20px;&quot;&gt;&lt;font style=&quot;font-size: 20px;&quot;&gt;.&lt;/font&gt;&lt;/div&gt;&lt;div style=&quot;font-size: 20px;&quot;&gt;&lt;font style=&quot;font-size: 20px;&quot;&gt;&lt;br&gt;&lt;/font&gt;&lt;/div&gt;" style="rounded=0;whiteSpace=wrap;html=1;strokeWidth=1;fontStyle=1" parent="1" vertex="1">
          <mxGeometry x="1155" y="70" width="450" height="180" as="geometry" />
        </mxCell>
        <mxCell id="luZTjx40LB_68a69q-34-184" value="&lt;font style=&quot;font-size: 30px;&quot;&gt;1&lt;span style=&quot;white-space: pre;&quot;&gt;&#x9;&lt;/span&gt;:authority&lt;/font&gt;" style="text;html=1;align=center;verticalAlign=middle;resizable=0;points=[];autosize=1;strokeColor=none;fillColor=none;strokeWidth=1;fontStyle=1" parent="1" vertex="1">
          <mxGeometry x="1165" y="80" width="170" height="50" as="geometry" />
        </mxCell>
        <mxCell id="luZTjx40LB_68a69q-34-185" value="&lt;font style=&quot;font-size: 30px;&quot;&gt;61&lt;span style=&quot;white-space: pre;&quot;&gt;&#x9;&lt;/span&gt;www-authenticate&lt;span style=&quot;white-space: pre;&quot;&gt;&#x9;&lt;/span&gt;&lt;/font&gt;" style="text;html=1;align=center;verticalAlign=middle;resizable=0;points=[];autosize=1;strokeColor=none;fillColor=none;strokeWidth=1;fontStyle=1" parent="1" vertex="1">
          <mxGeometry x="1165" y="180" width="340" height="50" as="geometry" />
        </mxCell>
        <mxCell id="luZTjx40LB_68a69q-34-186" value="&lt;font style=&quot;font-size: 40px;&quot;&gt;DYNAMIC TABLE&lt;/font&gt;" style="text;html=1;align=center;verticalAlign=middle;resizable=0;points=[];autosize=1;strokeColor=none;fillColor=none;strokeWidth=1;fontStyle=1" parent="1" vertex="1">
          <mxGeometry x="1200" y="260" width="340" height="60" as="geometry" />
        </mxCell>
        <mxCell id="luZTjx40LB_68a69q-34-192" style="edgeStyle=orthogonalEdgeStyle;rounded=0;orthogonalLoop=1;jettySize=auto;html=1;exitX=0.5;exitY=1;exitDx=0;exitDy=0;entryX=1;entryY=0.5;entryDx=0;entryDy=0;fontStyle=1" parent="1" source="luZTjx40LB_68a69q-34-187" target="luZTjx40LB_68a69q-34-103" edge="1">
          <mxGeometry relative="1" as="geometry" />
        </mxCell>
        <mxCell id="luZTjx40LB_68a69q-34-187" value="" style="rounded=0;whiteSpace=wrap;html=1;strokeWidth=1;fontStyle=1" parent="1" vertex="1">
          <mxGeometry x="1155" y="330" width="450" height="80" as="geometry" />
        </mxCell>
        <mxCell id="luZTjx40LB_68a69q-34-188" value="&lt;font style=&quot;font-size: 30px;&quot;&gt;62&lt;span style=&quot;white-space: pre;&quot;&gt;&#x9;&lt;/span&gt;location&lt;span style=&quot;white-space: pre;&quot;&gt;&#x9;&lt;/span&gt;https://zoho.com&lt;/font&gt;" style="text;html=1;align=center;verticalAlign=middle;resizable=0;points=[];autosize=1;strokeColor=none;fillColor=none;strokeWidth=1;fontStyle=1" parent="1" vertex="1">
          <mxGeometry x="1165" y="345" width="430" height="50" as="geometry" />
        </mxCell>
        <mxCell id="luZTjx40LB_68a69q-34-189" style="edgeStyle=orthogonalEdgeStyle;rounded=0;orthogonalLoop=1;jettySize=auto;html=1;exitX=1;exitY=0.5;exitDx=0;exitDy=0;entryX=-0.019;entryY=0.44;entryDx=0;entryDy=0;entryPerimeter=0;fontStyle=1" parent="1" source="luZTjx40LB_68a69q-34-99" target="luZTjx40LB_68a69q-34-188" edge="1">
          <mxGeometry relative="1" as="geometry">
            <Array as="points">
              <mxPoint x="770" y="523" />
              <mxPoint x="770" y="210" />
              <mxPoint x="1080" y="210" />
              <mxPoint x="1080" y="367" />
            </Array>
          </mxGeometry>
        </mxCell>
        <mxCell id="luZTjx40LB_68a69q-34-193" value="&lt;font style=&quot;font-size: 25px;&quot;&gt;HTTP REQUEST 2 REFERENCED THIS ENTRY &lt;br&gt;&lt;/font&gt;" style="text;whiteSpace=wrap;html=1;fontStyle=1" parent="1" vertex="1">
          <mxGeometry x="1250" y="535" width="230" height="50" as="geometry" />
        </mxCell>
        <mxCell id="luZTjx40LB_68a69q-34-194" value="&lt;font style=&quot;font-size: 25px;&quot;&gt;HTTP REQUEST 1 ADDED THIS ENTRY &lt;br&gt;&lt;/font&gt;" style="text;whiteSpace=wrap;html=1;fontStyle=1" parent="1" vertex="1">
          <mxGeometry x="640" y="135" width="500" height="50" as="geometry" />
        </mxCell>
        <mxCell id="luZTjx40LB_68a69q-34-199" value="&lt;font style=&quot;font-size: 25px;&quot;&gt;HTTP REQUEST 2 HEADERS DECODED WITH THIS ENTRY&lt;br&gt;&lt;/font&gt;" style="text;whiteSpace=wrap;html=1;fontStyle=1" parent="1" vertex="1">
          <mxGeometry x="2580" y="290" width="450" height="50" as="geometry" />
        </mxCell>
        <mxCell id="luZTjx40LB_68a69q-34-200" value="&lt;div style=&quot;font-size: 100px;&quot; align=&quot;center&quot;&gt;&lt;font style=&quot;font-size: 100px;&quot;&gt;ENCODER SIDE&lt;br&gt;&lt;/font&gt;&lt;/div&gt;" style="text;whiteSpace=wrap;html=1;fontStyle=1" parent="1" vertex="1">
          <mxGeometry x="380" y="-110" width="835" height="180" as="geometry" />
        </mxCell>
        <mxCell id="luZTjx40LB_68a69q-34-201" value="&lt;div align=&quot;center&quot; style=&quot;font-size: 100px;&quot;&gt;&lt;font style=&quot;font-size: 100px;&quot;&gt;DECODER SIDE&lt;br&gt;&lt;/font&gt;&lt;/div&gt;" style="text;whiteSpace=wrap;html=1;fontStyle=1" parent="1" vertex="1">
          <mxGeometry x="2420" y="-80" width="790" height="160" as="geometry" />
        </mxCell>
      </root>
    </mxGraphModel>
  </diagram>
</mxfile>
